<?xml version="1.0" standalone="yes"?>
<svg xmlns="http://www.w3.org/2000/svg" width="2000" height="2000">
<path style="fill:#41674f; stroke:none;" d="M0 0L0 846C25.6209 842.762 52.1917 845.618 78 844.985C120.294 843.949 162.79 841.802 205 838.911C333.286 830.124 461.72 810.812 586 777.151C631.818 764.742 676.556 749.674 721 733.05C732.445 728.769 743.757 723.939 755 719.15C758.847 717.511 765.471 715.944 767.972 712.363C770.216 709.151 769 702.726 769 699L769 667L769 544L769 77L1231 77C1234.99 108.545 1231.26 144.267 1229.09 176C1223.92 251.417 1214.36 325.842 1199 400C1174.79 516.939 1134.99 632.302 1079.22 738C1034.7 822.378 978.907 900.225 913.911 970C680.836 1220.21 331.057 1308 0 1308L0 2000L2000 2000L2000 1154C1804.33 1154 1610.16 1172.46 1420 1220.63C1372.66 1232.62 1325.37 1247.91 1280 1266C1268.63 1270.53 1257.26 1275.05 1246 1279.85C1242.15 1281.49 1235.53 1283.06 1233.03 1286.64C1228.27 1293.44 1232 1313.74 1232 1322L1232 1416L1232 1776L1232 1884L1232 1911C1232 1914.1 1232.82 1918.97 1230.4 1921.4C1225.56 1926.23 1206.59 1923 1200 1923L1114 1923L769 1923C769 1549.67 895.678 1154.97 1205 922.873C1261.59 880.416 1322.65 842.855 1387 813.309C1579.26 725.03 1789.84 692 2000 692L2000 0L0 0z"/>
<path style="fill:#373984; stroke:none;" d="M769 77L769 713C785.207 708.333 800.951 698.771 816 691.247C847.925 675.284 879.097 657.864 909 638.344C1044.4 549.956 1152.72 423.305 1202.34 268C1216.32 224.266 1224.76 179.618 1229.17 134C1230.9 116.132 1234.28 94.6753 1231 77L769 77z"/>
<path style="fill:#6572f1; stroke:none;" d="M1230 114L1231 115L1230 114M1230 116C1230 164.405 1219.21 213.87 1205.02 260C1158.56 411.119 1056.31 536.849 927 625.974C883.586 655.897 837.381 680.819 790 703.741C776.36 710.34 762.096 716.186 748 721.742C742.426 723.94 732.742 726.306 729 731C723.82 730.883 714.197 733.777 711 738C703.282 737.846 694.846 742.912 687.576 745.385C668.719 751.8 649.892 758.115 631 764.329C623.999 766.632 609.385 767.882 605 774L608 773L608 1059L608 1146L609 1188L615 1183L619 1181L639 1174L639 1172L662 1162L662 1160C666.734 1160 672.214 1156.85 675 1153C697.816 1150.57 715.423 1123.76 737 1118L740 1116C745.45 1109.54 755.061 1105.84 761.911 1100.81C778.696 1088.48 795.608 1076.45 812.004 1063.57C856.315 1028.78 897.18 989.853 934.831 948C1079.56 787.126 1166.08 579.005 1205.61 368C1216.57 309.528 1222.55 251.063 1228.17 192C1229.87 174.17 1231 155.92 1231 138C1231 131.314 1232.6 122.194 1230 116z"/>
<path style="fill:#5549b6; stroke:none;" d="M1229 131L1229 135L1230 135L1229 131M1228 142L1228 147L1229 147L1228 142M1227 152L1227 155L1228 155L1227 152M1226 160L1226 163L1227 163L1226 160M1225 167L1225 170L1226 170L1225 167M1224.33 174.667L1224.67 175.333L1224.33 174.667M1223 180L1223 183L1224 183L1223 180M1222.33 186.667L1222.67 187.333L1222.33 186.667M1221 191L1221 194L1222 194L1221 191M1220.33 197.667L1220.67 198.333L1220.33 197.667M1219.33 202.667L1219.67 203.333L1219.33 202.667M1218.33 207.667L1218.67 208.333L1218.33 207.667M1217 211L1217 214L1218 214L1217 211M1216.33 216.667L1216.67 217.333L1216.33 216.667M1215.33 220.667L1215.67 221.333L1215.33 220.667M1214.33 224.667L1214.67 225.333L1214.33 224.667M1213.33 228.667L1213.67 229.333L1213.33 228.667M1212.33 232.667L1212.67 233.333L1212.33 232.667M1211.33 236.667L1211.67 237.333L1211.33 236.667M1210.33 240.667L1210.67 241.333L1210.33 240.667M1209 244L1210 245L1209 244M1208.33 247.667L1208.67 248.333L1208.33 247.667M1207 251L1208 252L1207 251M1206.33 254.667L1206.67 255.333L1206.33 254.667M1205 258L1206 259L1205 258M1204 261L1205 262L1204 261M1203.33 264.667L1203.67 265.333L1203.33 264.667M1202.33 267.667L1202.67 268.333L1202.33 267.667M1201.33 270.667L1201.67 271.333L1201.33 270.667M1200 274L1201 275L1200 274M1199 277L1200 278L1199 277M1198 280L1199 281L1198 280M1197.33 282.667L1197.67 283.333L1197.33 282.667M1196.33 285.667L1196.67 286.333L1196.33 285.667M1195 288L1196 289L1195 288M1194 291L1195 292L1194 291M1193 294L1194 295L1193 294M1192 296L1193 297L1192 296M1191 299L1192 300L1191 299M1190 302L1191 303L1190 302M1189 304L1190 305L1189 304M1188 307L1189 308L1188 307M1187 309L1188 310L1187 309M1186 312L1187 313L1186 312M1185 314L1186 315L1185 314M1184 317L1185 318L1184 317M1183 319L1184 320L1183 319M1182.33 321.667L1182.67 322.333L1182.33 321.667M1181 324L1182 325L1181 324M1180 326L1181 327L1180 326M1179.33 328.667L1179.67 329.333L1179.33 328.667M1178 331L1179 332L1178 331M1177 333L1178 334L1177 333M1176 335L1177 336L1176 335M1175 337L1176 338L1175 337M1174 340L1175 341L1174 340M1173 342L1174 343L1173 342M1172 344L1173 345L1172 344M1171 346L1172 347L1171 346M1170 348L1171 349L1170 348M1169 350L1170 351L1169 350M1168 352L1169 353L1168 352M1167 354L1168 355L1167 354M1166 356L1167 357L1166 356M1165 358L1166 359L1165 358M1164 360L1165 361L1164 360M1163 362L1164 363L1163 362M1162 364L1163 365L1162 364M1161 366L1162 367L1161 366M1160 368L1161 369L1160 368M1159 370L1160 371L1159 370M1158 372L1159 373L1158 372M1157 374L1158 375L1157 374M1156 376L1157 377L1156 376M1153 381L1154 382L1153 381M1152 383L1153 384L1152 383M1151 385L1152 386L1151 385M1149 388L1150 389L1149 388M1148 390L1149 391L1148 390M1147 392L1148 393L1147 392M1145 395L1146 396L1145 395M1144 397L1145 398L1144 397M1143 399L1144 400L1143 399M1141 402L1142 403L1141 402M1140 404L1141 405L1140 404M1138 407L1139 408L1138 407M1137 409L1138 410L1137 409M1135 412L1136 413L1135 412M1133 415L1134 416L1133 415M1131 418L1132 419L1131 418M1130 420L1131 421L1130 420M1129 421L1130 422L1129 421M1128 423L1129 424L1128 423M1126 426L1127 427L1126 426M1124 429L1125 430L1124 429M1122 432L1123 433L1122 432M1120 435L1121 436L1120 435M1119 436L1120 437L1119 436M1118 438L1119 439L1118 438M1117 439L1118 440L1117 439M1115 442L1116 443L1115 442M1113 445L1114 446L1113 445M1112 446L1113 447L1112 446M1111 448L1112 449L1111 448M1110 449L1111 450L1110 449M1108 452L1109 453L1108 452M1107 453L1108 454L1107 453M1105 456L1106 457L1105 456M1104 457L1105 458L1104 457M1102 460L1103 461L1102 460M1101 461L1102 462L1101 461M1099 464L1100 465L1099 464M1098 465L1099 466L1098 465M1096 468L1097 469L1096 468M1095 469L1096 470L1095 469M1092 473L1093 474L1092 473M1091 474L1092 475L1091 474M1088 478L1089 479L1088 478M1087 479L1088 480L1087 479M1083 484L1084 485L1083 484M1082 485L1083 486L1082 485M1078 490L1079 491L1078 490M1077 491L1078 492L1077 491M1072 497L1073 498L1072 497M1071 498L1072 499L1071 498M1070 499L1071 500L1070 499M1065 505L1066 506L1065 505M1064 506L1065 507L1064 506M1063 507L1064 508L1063 507M1055 516L1056 517L1055 516M1054 517L1055 518L1054 517M1053 518L1054 519L1053 518M1052 519L1053 520L1052 519M1051 520L1052 521L1051 520M1050 521L1051 522L1050 521M1049 522L1050 523L1049 522M1048 523L1049 524L1048 523M1027 544L1028 545L1027 544M1026 545L1027 546L1026 545M1025 546L1026 547L1025 546M1024 547L1025 548L1024 547M1012 558L1013 559L1012 558M1011 559L1012 560L1011 559M1002 567L1003 568L1002 567M1001 568L1002 569L1001 568M994 574L995 575L994 574M988 579L989 580L988 579M982 584L983 585L982 584M977 588L978 589L977 588M972 592L973 593L972 592M963 599L964 600L963 599M959 602L960 603L959 602M955 605L956 606L955 605M951 608L952 609L951 608M947 611L948 612L947 611M944 613L945 614L944 613M940 616L941 617L940 616M936 619L937 620L936 619M929 624L930 625L929 624M926 626L927 627L926 626M911 636L912 637L911 636M908 638L909 639L908 638M905 640L906 641L905 640M902 642L903 643L902 642M897 645L898 646L897 645M894 647L895 648L894 647M889 650L890 651L889 650M886 652L887 653L886 652M884 653L885 654L884 653M879 656L880 657L879 656M874 659L875 660L874 659M867 663L868 664L867 663M862 666L863 667L862 666M860 667L861 668L860 667M853 671L854 672L853 671M851 672L852 673L851 672M846 675L847 676L846 675M844 676L845 677L844 676M842 677L843 678L842 677M840 678L841 679L840 678z"/>
<path style="fill:#21a8d8; stroke:none;" d="M1106 682L1107 683L1106 682z"/>
<path style="fill:#5549b6; stroke:none;" d="M825 686L826 687L825 686M823 687L824 688L823 687M821 688L822 689L821 688M819 689L820 690L819 689M817 690L818 691L817 690M815 691L816 692L815 691M813 692L814 693L813 692z"/>
<path style="fill:#21a8d8; stroke:none;" d="M1478 777L1472 777L1472 779L1464 782C1458.75 781.602 1446.68 785.32 1444 790L1439 792C1434.6 791.813 1429.55 793.259 1427 797L1420 798L1420 800L1413 803L1406 804L1406 806L1397 808L1399 809L1399 810L1395 809L1393 810L1392 811C1394.21 845.328 1392 880.579 1392 915L1392 1124L1392 1203C1392 1206.28 1391.29 1230.98 1396 1226L1403 1224L1406 1223L1410 1222L1417 1222L1428 1219L1428 1217L1432 1218L1432 1216C1437.7 1217.26 1456.17 1213.56 1460 1209C1465.93 1210.28 1473.22 1207.37 1479.09 1206.07C1491.85 1203.24 1504.69 1200.64 1517.41 1197.64C1554.61 1188.88 1593.19 1183.72 1631 1178.27C1753.27 1160.65 1876.6 1154 2000 1154L2000 692C1867.07 692 1736.76 706.555 1607 735.989C1574.89 743.272 1543.34 753.517 1511.96 763.369C1503.4 766.055 1483.08 769.583 1478 777z"/>
<path style="fill:#5549b6; stroke:none;" d="M811 693L812 694L811 693M809 694L810 695L809 694M807 695L808 696L807 695M805 696L806 697L805 696M803 697L804 698L803 697M801 698L802 699L801 698M790 703L791 704L790 703M788 704L789 705L788 704M786 705L787 706L786 705M777 709L778 710L777 709M775 710L776 711L775 710z"/>
<path style="fill:#21a8d8; stroke:none;" d="M1089 718L1090 719L1089 718M749 721L750 722L749 721M737 726L738 727L737 726M734 727L735 728L734 727M732 728L733 729L732 728M728 730L729 731L728 730M717 734L718 735L717 734z"/>
<path style="fill:#6572f1; stroke:none;" d="M1609 735L1610 736L1609 735z"/>
<path style="fill:#21a8d8; stroke:none;" d="M710 737L711 738L710 737M706 738L707 739L706 738M703 739L704 740L703 739M701.667 740.333L702.333 740.667L701.667 740.333M690 744L691 745L690 744M688 745L689 746L688 745M684 746L685 747L684 746z"/>
<path style="fill:#6572f1; stroke:none;" d="M1564 747L1565 748L1564 747z"/>
<path style="fill:#21a8d8; stroke:none;" d="M678 748L679 749L678 748M676 749L677 750L676 749z"/>
<path style="fill:#6572f1; stroke:none;" d="M1557 749L1558 750L1557 749z"/>
<path style="fill:#21a8d8; stroke:none;" d="M673 750L674 751L673 750M671 751L672 752L671 751M667 752L668 753L667 752M664 753L665 754L664 753M661 754L662 755L661 754M658 755L659 756L658 755z"/>
<path style="fill:#6572f1; stroke:none;" d="M1537 755L1538 756L1537 755z"/>
<path style="fill:#21a8d8; stroke:none;" d="M655.667 756.333L656.333 756.667L655.667 756.333M652.667 757.333L653.333 757.667L652.667 757.333M649.667 758.333L650.333 758.667L649.667 758.333M646.667 759.333L647.333 759.667L646.667 759.333M643.667 760.333L644.333 760.667L643.667 760.333M640 761L641 762L640 761M636 762L637 763L636 762z"/>
<path style="fill:#6572f1; stroke:none;" d="M1516 762L1517 763L1516 762z"/>
<path style="fill:#21a8d8; stroke:none;" d="M633 763L634 764L633 763M630 764L631 765L630 764M627 765L628 766L627 765M623 766L624 767L623 766M620 767L621 768L620 767M616 768L616 769L619 769L616 768z"/>
<path style="fill:#6572f1; stroke:none;" d="M1497 768L1498 769L1497 768z"/>
<path style="fill:#21a8d8; stroke:none;" d="M614 769L615 770L614 769M610.667 770.333L611.333 770.667L610.667 770.333M613 770L614 771L613 770M606.667 771.333L607.333 771.667L606.667 771.333M602 774L600 773L599 773L599 774L601 774L601 775L595 776L592 777L588 778L584 777L584 779L581 778L573 782L562 783L542 790C536.026 788.711 529.816 791.499 524 792.772L486.285 801.055C446.217 809.707 405.563 815.884 365 821.729C280.414 833.917 195.193 840.23 110 843.961C86.3658 844.996 62.6793 845 39 845C26.2151 845 12.5977 843.661 0 846L0 1308C128.279 1308 259.035 1296.46 384 1265.63C428.298 1254.69 472.06 1241.86 515.039 1226.54C527.762 1222.01 540.511 1217.29 553 1212.14C559.651 1209.4 566.819 1204.73 574 1204L574 1202L576 1201L583 1200L583 1198L585 1197L588 1198L587 1196L588 1196L592 1194L597 1194L596 1192L599 1193L601 1192L601 1190L606 1190L605 1188L608 1189L609 1188L608 1143L608 1055L608 773L605 774C603.873 771.994 603.127 771.994 602 774M609 772L610 773L609 772z"/>
<path style="fill:#6572f1; stroke:none;" d="M601 773L602 774L601 773M598 774L598 775L601 775L598 774M603 774L604 775L603 774M594 775L595 776L594 775M596.667 775.333L597.333 775.667L596.667 775.333M591 776L592 777L591 776M1477 776L1478 777L1477 776M586.667 777.333L587.333 777.667L586.667 777.333M589 777L590 778L589 777M1473 777L1474 778L1473 777M582.667 778.333L583.333 778.667L582.667 778.333M1471 778L1472 779L1471 778M579.667 779.333L580.333 779.667L579.667 779.333M569 781L570 782L569 781M571.667 781.333L572.333 781.667L571.667 781.333M1463 781L1464 782L1463 781M568 782L569 783L568 782M1460 782L1461 783L1460 782M563.667 783.333L564.333 783.667L563.667 783.333M1457 783L1458 784L1457 783M559 784L560 785L559 784M561 784L562 785L561 784M1452 785L1453 786L1452 785M548 787L549 788L548 787M1447 787L1448 788L1447 787M539 789L540 790L539 789M541 789L542 790L541 789M1441 789L1442 790L1441 789M1443 789L1444 790L1443 789M535 790L536 791L535 790M1436 791L1437 792L1436 791M1438 791L1439 792L1438 791M526 792L527 793L526 792M1435 792L1436 793L1435 792M522 793L523 794L522 793M1431 793L1432 794L1431 793M1426 796L1427 797L1426 796M1421 798L1422 799L1421 798M1417 799L1418 800L1417 799M1419 799L1420 800L1419 799M485 801L486 802L485 801M1412 802L1413 803L1412 802M1410.67 803.333L1411.33 803.667L1410.67 803.333M470 804L471 805L470 804M1407 804L1408 805L1407 804M465 805L466 806L465 805M1405 805L1406 806L1405 805M1400 808L1403 806L1400 808M449 808L450 809L449 808M1399 808L1400 809L1399 808M1396 809L1396 810L1399 810L1396 809M438 810L439 811L438 810M1394 810L1395 811L1394 810M1346 833C1335.78 841.533 1321.02 847.019 1309.33 853.513C1288.39 865.155 1267.96 878.271 1248 891.516C1189.64 930.249 1135.42 976.399 1087.04 1027C869.941 1254.04 768 1585.3 768 1895L769 1895C769 1684.89 900.844 1494.98 1067 1377.42C1108.08 1348.36 1152.98 1321.37 1199 1300.86C1214.67 1293.88 1230.02 1286.31 1246 1280.06C1252.15 1277.66 1263.03 1275.4 1267 1270L1272 1268L1277 1266L1291 1261L1321 1251L1335 1245L1357 1239.05L1393 1228L1392 1177L1392 1077L1392 898L1392 842L1393 812L1392 811L1346 833M1393 811L1394 812L1393 811z"/>
<path style="fill:#21a8d8; stroke:none;" d="M1388 812L1389 813L1388 812M1035 813L1036 814L1035 813M1386 813L1387 814L1386 813M1384.67 814.333L1385.33 814.667L1384.67 814.333M1387 814L1387 815L1390 815L1387 814M1382 815L1383 816L1382 815M1380 816L1381 817L1380 816M1378 817L1379 818L1378 817M1376 818L1377 819L1376 818M1374 820L1375 821L1374 820M1365 823L1366 824L1365 823M1360 826L1361 827L1360 826M1358 827L1359 828L1358 827M1356 828L1357 829L1356 828M1354 829L1355 830L1354 829M1350 831L1351 832L1350 831M1348 832L1349 833L1348 832M1347 833L1348 834L1347 833M1344.67 834.333L1345.33 834.667L1344.67 834.333M1337 838L1338 839L1337 838M1335 839L1336 840L1335 839M1333 840L1334 841L1333 840M1331 841L1332 842L1331 841M1329 842L1330 843L1329 842M1328 843L1329 844L1328 843M1322 846L1323 847L1322 846M1318 848L1319 849L1318 848M1315 850L1316 851L1315 850M1313 851L1314 852L1313 851M1312 852L1313 853L1312 852M1308 854L1309 855L1308 854M1304 856L1305 857L1304 856M1005 858L1006 859L1005 858M1301 858L1302 859L1301 858M1299 859L1300 860L1299 859M1296 861L1297 862L1296 861M1294 862L1295 863L1294 862M1291 864L1292 865L1291 864M1289 865L1290 866L1289 865M1286 867L1287 868L1286 867M1284.67 868.333L1285.33 868.667L1284.67 868.333M1278 872L1279 873L1278 872M1277 873L1278 874L1277 873M1270 877L1271 878L1270 877M989 880L990 881L989 880M1265 880L1266 881L1265 880M1262 882L1263 883L1262 882M1259 884L1260 885L1259 884M1256 886L1257 887L1256 886M1245 893L1246 894L1245 893M1242 895L1243 896L1242 895M1238 898L1239 899L1238 898M1231 903L1232 904L1231 903M1225 907L1226 908L1225 907M1220 911L1221 912L1220 911M1214 915L1215 916L1214 915M1197 928L1198 929L1197 928M1173 947L1174 948L1173 947M1161 957L1162 958L1161 957M1154 963L1155 964L1154 963M916 967L917 968L916 967M1145 971L1146 972L1145 971M1138 977L1139 978L1138 977M1136 979L1137 980L1136 979M1123 991L1124 992L1123 991M875 1008L876 1009L875 1008M874 1009L875 1010L874 1009M864 1018L865 1019L864 1018M862 1020L863 1021L862 1020M861 1021L862 1022L861 1021M860 1022L861 1023L860 1022M853 1028L854 1029L853 1028M852 1029L853 1030L852 1029M846 1034L847 1035L846 1034M839 1040L840 1041L839 1040M838 1041L839 1042L838 1041M833 1045L834 1046L833 1045M832 1046L833 1047L832 1046M825 1052L826 1053L825 1052M820 1056L821 1057L820 1056M815 1060L816 1061L815 1060M810 1064L811 1065L810 1064M806 1067L807 1068L806 1067M801 1071L802 1072L801 1071M793 1077L794 1078L793 1077M778 1088L779 1089L778 1088M774 1091L775 1092L774 1091M767 1096L768 1097L767 1096M765 1097L766 1098L765 1097M757 1103L758 1104L757 1103M744.667 1111.33L745.333 1111.67L744.667 1111.33M741.667 1113.33L742.333 1113.67L741.667 1113.33M740 1114L741 1115L740 1114M738 1115L739 1116L738 1115M737 1116L738 1117L737 1116M735 1117L736 1118L735 1117M734 1118L735 1119L734 1118M725 1124L726 1125L725 1124M720 1127L721 1128L720 1127M718 1128L719 1129L718 1128M709 1134L710 1135L709 1134M707 1135L708 1136L707 1135M705 1136L706 1137L705 1136M700 1139L701 1140L700 1139M692 1144L693 1145L692 1144M690 1145L691 1146L690 1145M688 1146L689 1147L688 1146M683 1149L684 1150L683 1149M679 1151L680 1152L679 1151M675 1153L676 1154L675 1153M672 1155L673 1156L672 1155M670 1156L671 1157L670 1156M662 1160L663 1161L662 1160M660 1161L661 1162L660 1161M655 1164L656 1165L655 1164M653 1165L654 1166L653 1165M646 1169L647 1170L646 1169M644 1170L645 1171L644 1170M642 1171L643 1172L642 1171M639 1172L640 1173L639 1172M637 1173L638 1174L637 1173M635.667 1174.33L636.333 1174.67L635.667 1174.33M634 1175L635 1176L634 1175M631 1176L632 1177L631 1176M629.667 1177.33L630.333 1177.67L629.667 1177.33M628 1178L629 1179L628 1178M626 1179L627 1180L626 1179M624 1180L625 1181L624 1180M619.333 1181.67L619.667 1182.33L619.333 1181.67M621 1181L622 1182L621 1181M615.333 1183.67L615.667 1184.33L615.333 1183.67M617 1183L618 1184L617 1183M613 1185L614 1186L613 1185M610.667 1186.33L611.333 1186.67L610.667 1186.33z"/>
<path style="fill:#6572f1; stroke:none;" d="M605.667 1188.33L606.333 1188.67L605.667 1188.33M603.667 1189.33L604.333 1189.67L603.667 1189.33M1560 1189L1561 1190L1560 1189M601 1190L602 1191L601 1190M599 1191L600 1192L599 1191M1549 1191L1550 1192L1549 1191M596.667 1192.33L597.333 1192.67L596.667 1192.33M595 1193L596 1194L595 1193M592 1194L593 1195L592 1194M587.667 1196.33L588.333 1196.67L587.667 1196.33M1521 1196L1522 1197L1521 1196M1523 1196L1524 1197L1523 1196M585 1197L586 1198L585 1197M1516 1197L1517 1198L1516 1197M583 1198L584 1199L583 1198M581 1199L582 1200L581 1199M1506 1199L1507 1200L1506 1199M576 1201L577 1202L576 1201M574 1202L575 1203L574 1202M572 1203L573 1204L572 1203M1487 1203L1488 1204L1487 1203M566 1205L566 1206L569 1206L566 1205M1481 1205L1482 1206L1481 1205M1475 1206L1476 1207L1475 1206M561 1207L562 1208L561 1207M1470 1207L1471 1208L1470 1207M1466 1208L1467 1209L1466 1208M1460 1209L1461 1210L1460 1209M1462 1209L1463 1210L1462 1209M556 1210L557 1211L556 1210M1453 1211L1454 1212L1453 1211M1455 1211L1456 1212L1455 1211M1449 1212L1450 1213L1449 1212M1445 1213L1446 1214L1445 1213M546 1214L547 1215L546 1214M1432 1216L1433 1217L1432 1216M1434 1216L1435 1217L1434 1216M1428 1217L1429 1218L1428 1217M1430 1217L1431 1218L1430 1217M1426 1218L1427 1219L1426 1218M533 1219L534 1220L533 1219M1422 1219L1423 1220L1422 1219M1424 1219L1425 1220L1424 1219M1417 1220L1418 1221L1417 1220M1419 1220L1420 1221L1419 1220M1414 1221L1415 1222L1414 1221M1410.67 1222.33L1411.33 1222.67L1410.67 1222.33M1406 1223L1407 1224L1406 1223M1403 1224L1404 1225L1403 1224M517 1225L518 1226L517 1225M1399 1225L1400 1226L1399 1225M1396 1226L1397 1227L1396 1226M1398 1226L1399 1227L1398 1226M510 1227L511 1228L510 1227z"/>
<path style="fill:#21a8d8; stroke:none;" d="M1391 1228L1392 1229L1391 1228M1386 1229L1386 1230L1389 1230L1386 1229M1384 1230L1385 1231L1384 1230z"/>
<path style="fill:#6572f1; stroke:none;" d="M500 1231L501 1232L500 1231z"/>
<path style="fill:#21a8d8; stroke:none;" d="M1380.67 1231.33L1381.33 1231.67L1380.67 1231.33z"/>
<path style="fill:#6572f1; stroke:none;" d="M496 1232L497 1233L496 1232z"/>
<path style="fill:#21a8d8; stroke:none;" d="M1377 1232L1378 1233L1377 1232M1374 1233L1375 1234L1374 1233M1370 1234L1371 1235L1370 1234M1367 1235L1368 1236L1367 1235M1364 1236L1365 1237L1364 1236z"/>
<path style="fill:#6572f1; stroke:none;" d="M481 1237L482 1238L481 1237z"/>
<path style="fill:#21a8d8; stroke:none;" d="M1361 1237L1362 1238L1361 1237z"/>
<path style="fill:#6572f1; stroke:none;" d="M478 1238L479 1239L478 1238z"/>
<path style="fill:#21a8d8; stroke:none;" d="M1358 1238L1359 1239L1358 1238M1355 1239L1356 1240L1355 1239M1348.67 1241.33L1349.33 1241.67L1348.67 1241.33M1345 1242L1346 1243L1345 1242M1342 1243L1343 1244L1342 1243M1339 1244L1340 1245L1339 1244M1335.67 1245.33L1336.33 1245.67L1335.67 1245.33M1333 1246L1334 1247L1333 1246M1330 1247L1331 1248L1330 1247M1325 1249L1326 1250L1325 1249M1315 1252L1316 1253L1315 1252M1313 1253L1314 1254L1313 1253M1305 1256L1306 1257L1305 1256M1301 1257L1302 1258L1301 1257M1300 1258L1301 1259L1300 1258M1290.67 1261.33L1291.33 1261.67L1290.67 1261.33M1286 1263L1287 1264L1286 1263M1277 1266L1278 1267L1277 1266M1272 1268L1273 1269L1272 1268M1267 1270L1268 1271L1267 1270z"/>
<path style="fill:#6572f1; stroke:none;" d="M333 1276L334 1277L333 1276z"/>
<path style="fill:#21a8d8; stroke:none;" d="M1254 1276L1255 1277L1254 1276M1244 1280L1245 1281L1244 1280M1242 1281L1243 1282L1242 1281M1235 1284L1236 1285L1235 1284z"/>
<path style="fill:#373984; stroke:none;" d="M769 1923L1111 1923L1199 1923C1205.97 1923 1224.87 1926.35 1230.4 1921.97C1232.92 1919.98 1232 1914.8 1232 1912L1232 1883L1232 1766L1232 1286C1215.72 1290.65 1200.12 1300.25 1185 1307.75C1150.83 1324.71 1118.07 1343.65 1086 1364.31C932.806 1462.98 816.679 1617.08 780.004 1797C771.466 1838.88 769 1880.39 769 1923z"/>
<path style="fill:#5549b6; stroke:none;" d="M1227 1287L1228 1288L1227 1287M1225 1288L1226 1289L1225 1288M1218 1291L1219 1292L1218 1291M1216 1292L1217 1293L1216 1292M1214 1293L1215 1294L1214 1293M1212 1294L1213 1295L1212 1294M1199 1300L1200 1301L1199 1300M1197 1301L1198 1302L1197 1301M1195 1302L1196 1303L1195 1302M1193 1303L1194 1304L1193 1303M1191 1304L1192 1305L1191 1304M1189 1305L1190 1306L1189 1305M1187 1306L1188 1307L1187 1306M1185 1307L1186 1308L1185 1307M1183 1308L1184 1309L1183 1308M1181 1309L1182 1310L1181 1309M1179 1310L1180 1311L1179 1310M1173 1313L1174 1314L1173 1313M1171 1314L1172 1315L1171 1314M1169 1315L1170 1316L1169 1315M1167 1316L1168 1317L1167 1316M1158 1321L1159 1322L1158 1321M1156 1322L1157 1323L1156 1322M1154 1323L1155 1324L1154 1323M1147 1327L1148 1328L1147 1327M1145 1328L1146 1329L1145 1328M1143 1329L1144 1330L1143 1329M1136 1333L1137 1334L1136 1333M1134 1334L1135 1335L1134 1334M1129 1337L1130 1338L1129 1337M1124 1340L1125 1341L1124 1340M1122 1341L1123 1342L1122 1341M1117 1344L1118 1345L1117 1344M1112 1347L1113 1348L1112 1347M1109 1349L1110 1350L1109 1349M1104 1352L1105 1353L1104 1352M1101 1354L1102 1355L1101 1354M1098 1356L1099 1357L1098 1356M1090 1361L1091 1362L1090 1361M1087 1363L1088 1364L1087 1363M1084 1365L1085 1366L1084 1365M1072 1373L1073 1374L1072 1373M1069 1375L1070 1376L1069 1375M1066 1377L1067 1378L1066 1377M1062 1380L1063 1381L1062 1380M1059 1382L1060 1383L1059 1382M1055 1385L1056 1386L1055 1385M1052 1387L1053 1388L1052 1387M1048 1390L1049 1391L1048 1390M1044 1393L1045 1394L1044 1393M1036 1399L1037 1400L1036 1399M1032 1402L1033 1403L1032 1402M1027 1406L1028 1407L1027 1406M1022 1410L1023 1411L1022 1410M1017 1414L1018 1415L1017 1414M1011 1419L1012 1420L1011 1419M1010 1420L1011 1421L1010 1420M1004 1425L1005 1426L1004 1425M997 1431L998 1432L997 1431M990 1437L991 1438L990 1437M989 1438L990 1439L989 1438M988 1439L989 1440L988 1439M977 1449L978 1450L977 1449M976 1450L977 1451L976 1450M975 1451L976 1452L975 1451M974 1452L975 1453L974 1452M949 1477L950 1478L949 1477M948 1478L949 1479L948 1478M947 1479L948 1480L947 1479M946 1480L947 1481L946 1480M935 1492L936 1493L935 1492M934 1493L935 1494L934 1493M933 1494L934 1495L933 1494M927 1501L928 1502L927 1501M926 1502L927 1503L926 1502M921 1508L922 1509L921 1508M920 1509L921 1510L920 1509M916 1514L917 1515L916 1514M915 1515L916 1516L915 1515M911 1520L912 1521L911 1520M910 1521L911 1522L910 1521M907 1525L908 1526L907 1525M906 1526L907 1527L906 1526M904 1529L905 1530L904 1529M903 1530L904 1531L903 1530M900 1534L901 1535L900 1534M899 1535L900 1536L899 1535M897 1538L898 1539L897 1538M896 1539L897 1540L896 1539M894 1542L895 1543L894 1542M893 1543L894 1544L893 1543M891 1546L892 1547L891 1546M888 1550L889 1551L888 1550M886 1553L887 1554L886 1553M885 1554L886 1555L885 1554M883 1557L884 1558L883 1557M881 1560L882 1561L881 1560M879 1563L880 1564L879 1563M878 1564L879 1565L878 1564M877 1566L878 1567L877 1566M876 1567L877 1568L876 1567M875 1569L876 1570L875 1569M874 1570L875 1571L874 1570M873 1572L874 1573L873 1572M872 1573L873 1574L872 1573M871 1575L872 1576L871 1575M870 1576L871 1577L870 1576M869 1578L870 1579L869 1578M867 1581L868 1582L867 1581M865 1584L866 1585L865 1584M864 1586L865 1587L864 1586M862 1589L863 1590L862 1589M860 1592L861 1593L860 1592M859 1594L860 1595L859 1594M857 1597L858 1598L857 1597M856 1599L857 1600L856 1599M854 1602L855 1603L854 1602M853 1604L854 1605L853 1604M852 1606L853 1607L852 1606M850 1609L851 1610L850 1609M849 1611L850 1612L849 1611M848 1613L849 1614L848 1613M846 1616L847 1617L846 1616M845 1618L846 1619L845 1618M844 1620L845 1621L844 1620M843 1622L844 1623L843 1622M842 1624L843 1625L842 1624M840 1627L841 1628L840 1627M839 1629L840 1630L839 1629M838 1631L839 1632L838 1631M837 1633L838 1634L837 1633M836 1635L837 1636L836 1635M835 1637L836 1638L835 1637M834 1639L835 1640L834 1639M833 1641L834 1642L833 1641M832 1643L833 1644L832 1643M831 1645L832 1646L831 1645M830 1647L831 1648L830 1647M829 1649L830 1650L829 1649M827 1654L828 1655L827 1654M826 1656L827 1657L826 1656M825 1658L826 1659L825 1658M824 1660L825 1661L824 1660M823 1662L824 1663L823 1662M821 1667L822 1668L821 1667M820 1669L821 1670L820 1669M819 1671L820 1672L819 1671M818 1674L819 1675L818 1674M817 1676L818 1677L817 1676M816 1678L817 1679L816 1678M815 1681L816 1682L815 1681M814 1683L815 1684L814 1683M812 1688L813 1689L812 1688M811.333 1690.67L811.667 1691.33L811.333 1690.67M810 1693L811 1694L810 1693M809 1696L810 1697L809 1696M808 1698L809 1699L808 1698M807 1701L808 1702L807 1701M806 1704L807 1705L806 1704M805 1706L806 1707L805 1706M804 1709L805 1710L804 1709M803 1712L804 1713L803 1712M802 1715L803 1716L802 1715M801.333 1717.67L801.667 1718.33L801.333 1717.67M800.333 1720.67L800.667 1721.33L800.333 1720.67M799.333 1723.67L799.667 1724.33L799.333 1723.67M798.333 1726.67L798.667 1727.33L798.333 1726.67M797.333 1729.67L797.667 1730.33L797.333 1729.67M796 1733L797 1734L796 1733M795 1736L796 1737L795 1736M794 1739L795 1740L794 1739M793.333 1742.67L793.667 1743.33L793.333 1742.67M792.333 1745.67L792.667 1746.33L792.333 1745.67M791.333 1749.67L791.667 1750.33L791.333 1749.67M790.333 1752.67L790.667 1753.33L790.333 1752.67M789.333 1756.67L789.667 1757.33L789.333 1756.67M788 1760L789 1761L788 1760M787 1764L788 1765L787 1764M786.333 1767.67L786.667 1768.33L786.333 1767.67M785.333 1771.67L785.667 1772.33L785.333 1771.67M784.333 1775.67L784.667 1776.33L784.333 1775.67M783.333 1780.67L783.667 1781.33L783.333 1780.67M782.333 1784.67L782.667 1785.33L782.333 1784.67M781.333 1789.67L781.667 1790.33L781.333 1789.67M780.333 1793.67L780.667 1794.33L780.333 1793.67M779.333 1798.67L779.667 1799.33L779.333 1798.67M778 1803L778 1806L779 1806L778 1803M777 1808L777 1811L778 1811L777 1808M776.333 1814.67L776.667 1815.33L776.333 1814.67M775 1820L775 1823L776 1823L775 1820M774 1826L774 1829L775 1829L774 1826M773 1833L773 1836L774 1836L773 1833M772 1841L772 1844L773 1844L772 1841M771 1849L771 1853L772 1853L771 1849M770 1861L771 1862L770 1861z"/>
<path style="fill:#373984; stroke:none;" d="M768 1875L769 1876L768 1875z"/>
</svg>
